<svg width="461" height="467" viewBox="0 0 461 467" fill="none" xmlns="http://www.w3.org/2000/svg">
<path d="M431.681 342.961C438.321 344.931 439.489 353.835 433.582 357.452L298.158 440.382C293.219 443.407 286.802 440.344 286.049 434.601L269.237 306.488C268.484 300.745 273.893 296.13 279.446 297.778L431.681 342.961Z" fill="#CF5389" fill-opacity="0.28"/>
<circle cx="202.5" cy="96.5" r="96.5" fill="#DAF3A4" fill-opacity="0.5"/>
<g clip-path="url(#clip0)">
<path d="M51.3336 201.501C48.9319 200.525 46.3029 200.601 43.9304 201.717C42.1569 202.551 40.7965 203.876 39.8868 205.654C39.4278 206.551 39.0952 207.541 38.8937 208.609C37.9428 208.084 36.9676 207.708 35.9834 207.49C34.0338 207.056 32.146 207.26 30.3725 208.094C28 209.21 26.2644 211.186 25.4854 213.659C24.7158 216.103 24.9456 218.839 26.133 221.363C27.3551 223.962 29.442 225.885 32.7007 227.415C35.6158 228.785 39.36 229.805 43.6958 230.987C45.1763 231.391 46.8546 231.848 48.6101 232.351C49.0741 232.484 49.5703 232.444 50.0076 232.238C50.4448 232.033 50.7922 231.676 50.9851 231.234C51.7174 229.561 52.4356 227.976 53.0691 226.577C54.9234 222.485 56.5249 218.95 57.3291 215.831C58.2282 212.345 58.0775 209.511 56.8553 206.913C55.6681 204.389 53.707 202.467 51.3336 201.501Z" fill="#F47B61" fill-opacity="0.57"/>
</g>
<path d="M32.1036 343.005C31.5543 342.948 31.0626 343.347 31.0054 343.896C30.9482 344.446 31.3471 344.937 31.8964 344.995L32.1036 343.005ZM153 345C153.552 345 154 344.552 154 344C154 343.448 153.552 343 153 343V345ZM47.5 352C48.9958 352 50.3013 351.473 51.4781 350.762C52.6356 350.063 53.7485 349.132 54.8122 348.281C57.0048 346.527 59.1335 345 62 345V343C58.3665 343 55.7452 344.973 53.5628 346.719C52.439 347.618 51.4582 348.437 50.4437 349.05C49.4487 349.652 48.5042 350 47.5 350V352ZM62 345C64.8498 345 66.7128 346.501 68.9378 348.281C71.1202 350.027 73.6165 352 77.5 352V350C74.3835 350 72.3798 348.473 70.1872 346.719C68.0372 344.999 65.6502 343 62 343V345ZM77.5 352C81.3945 352 83.7704 350.014 85.8857 348.272C88.0204 346.514 89.8945 345 93 345V343C89.1055 343 86.7296 344.986 84.6143 346.728C82.4796 348.486 80.6055 350 77.5 350V352ZM93 345C96.089 345 97.8381 346.5 99.7672 348.242C101.679 349.969 103.819 352 107.5 352V350C104.681 350 103.071 348.531 101.108 346.758C99.1619 345 96.911 343 93 343V345ZM107.5 352C111.119 352 113.865 350.039 116.218 348.305C118.682 346.489 120.647 345 123 345V343C119.853 343 117.318 345.011 115.032 346.695C112.635 348.461 110.381 350 107.5 350V352ZM138.5 352C140.914 352 142.62 351.458 144.002 350.513C145.338 349.599 146.308 348.341 147.281 347.125L145.719 345.875C144.692 347.159 143.912 348.151 142.873 348.862C141.88 349.542 140.586 350 138.5 350V352ZM147.281 347.125C148.066 346.143 149.417 345.584 150.722 345.288C151.354 345.144 151.932 345.072 152.352 345.035C152.561 345.017 152.728 345.008 152.841 345.004C152.898 345.002 152.94 345.001 152.967 345C152.981 345 152.99 345 152.996 345C152.999 345 153 345 153.001 345C153.001 345 153.002 345 153.001 345C153.001 345 153.001 345 153.001 345C153.001 345 153.001 345 153 345C153 345 153 345 153 344C153 343 153 343 152.999 343C152.999 343 152.999 343 152.999 343C152.998 343 152.998 343 152.997 343C152.996 343 152.994 343 152.992 343C152.989 343 152.984 343 152.978 343C152.967 343 152.951 343 152.931 343.001C152.891 343.002 152.835 343.003 152.764 343.006C152.623 343.011 152.424 343.022 152.18 343.043C151.693 343.085 151.021 343.169 150.278 343.337C148.833 343.666 146.934 344.357 145.719 345.875L147.281 347.125ZM123 345C125.586 345 127.004 345.583 127.903 346.2C128.365 346.517 128.723 346.865 129.059 347.219C129.364 347.541 129.742 347.974 130.125 348.281L131.375 346.719C131.133 346.526 130.917 346.272 130.511 345.843C130.136 345.448 129.666 344.983 129.034 344.55C127.746 343.667 125.914 343 123 343V345ZM130.125 348.281C131.246 349.177 133.565 352 138.5 352V350C134.435 350 132.754 347.823 131.375 346.719L130.125 348.281ZM32 344C31.8964 344.995 31.8962 344.995 31.896 344.995C31.896 344.995 31.8958 344.995 31.8957 344.995C31.8955 344.995 31.8954 344.995 31.8954 344.995C31.8953 344.994 31.8954 344.995 31.8958 344.995C31.8965 344.995 31.8982 344.995 31.9008 344.995C31.906 344.996 31.9149 344.997 31.9273 344.998C31.9522 345.001 31.991 345.006 32.0427 345.013C32.1459 345.027 32.2998 345.049 32.4936 345.083C32.8822 345.15 33.427 345.261 34.0449 345.432C35.3009 345.781 36.7683 346.359 37.8598 347.268L39.1402 345.732C37.7317 344.558 35.9491 343.886 34.5801 343.505C33.8855 343.312 33.2741 343.188 32.8345 343.112C32.6143 343.074 32.4361 343.048 32.3109 343.031C32.2482 343.023 32.1987 343.016 32.1637 343.012C32.1463 343.01 32.1324 343.009 32.1223 343.007C32.1173 343.007 32.1132 343.006 32.1101 343.006C32.1085 343.006 32.1072 343.006 32.1061 343.006C32.1056 343.006 32.1051 343.006 32.1047 343.005C32.1045 343.005 32.1042 343.005 32.1041 343.005C32.1038 343.005 32.1036 343.005 32 344ZM37.8598 347.268C38.4624 347.77 38.9876 348.278 39.5844 348.821C40.1655 349.351 40.7897 349.89 41.5124 350.366C42.9948 351.343 44.8125 352 47.5 352V350C45.1875 350 43.7552 349.449 42.6126 348.696C42.0228 348.308 41.4908 347.853 40.9312 347.343C40.3874 346.847 39.7876 346.271 39.1402 345.732L37.8598 347.268Z" fill="#C4C4C4"/>
<path d="M32.1036 356.005C31.5543 355.948 31.0626 356.347 31.0054 356.896C30.9482 357.446 31.3471 357.937 31.8964 357.995L32.1036 356.005ZM153 358C153.552 358 154 357.552 154 357C154 356.448 153.552 356 153 356V358ZM47.5 365C48.9958 365 50.3013 364.473 51.4781 363.762C52.6356 363.063 53.7485 362.132 54.8122 361.281C57.0048 359.527 59.1335 358 62 358V356C58.3665 356 55.7452 357.973 53.5628 359.719C52.439 360.618 51.4582 361.437 50.4437 362.05C49.4487 362.652 48.5042 363 47.5 363V365ZM62 358C64.8498 358 66.7128 359.501 68.9378 361.281C71.1202 363.027 73.6165 365 77.5 365V363C74.3835 363 72.3798 361.473 70.1872 359.719C68.0372 357.999 65.6502 356 62 356V358ZM77.5 365C81.3945 365 83.7704 363.014 85.8857 361.272C88.0204 359.514 89.8945 358 93 358V356C89.1055 356 86.7296 357.986 84.6143 359.728C82.4796 361.486 80.6055 363 77.5 363V365ZM93 358C96.089 358 97.8381 359.5 99.7672 361.242C101.679 362.969 103.819 365 107.5 365V363C104.681 363 103.071 361.531 101.108 359.758C99.1619 358 96.911 356 93 356V358ZM107.5 365C111.119 365 113.865 363.039 116.218 361.305C118.682 359.489 120.647 358 123 358V356C119.853 356 117.318 358.011 115.032 359.695C112.635 361.461 110.381 363 107.5 363V365ZM138.5 365C140.914 365 142.62 364.458 144.002 363.513C145.338 362.599 146.308 361.341 147.281 360.125L145.719 358.875C144.692 360.159 143.912 361.151 142.873 361.862C141.88 362.542 140.586 363 138.5 363V365ZM147.281 360.125C148.066 359.143 149.417 358.584 150.722 358.288C151.354 358.144 151.932 358.072 152.352 358.035C152.561 358.017 152.728 358.008 152.841 358.004C152.898 358.002 152.94 358.001 152.967 358C152.981 358 152.99 358 152.996 358C152.999 358 153 358 153.001 358C153.001 358 153.002 358 153.001 358C153.001 358 153.001 358 153.001 358C153.001 358 153.001 358 153 358C153 358 153 358 153 357C153 356 153 356 152.999 356C152.999 356 152.999 356 152.999 356C152.998 356 152.998 356 152.997 356C152.996 356 152.994 356 152.992 356C152.989 356 152.984 356 152.978 356C152.967 356 152.951 356 152.931 356.001C152.891 356.002 152.835 356.003 152.764 356.006C152.623 356.011 152.424 356.022 152.18 356.043C151.693 356.085 151.021 356.169 150.278 356.337C148.833 356.666 146.934 357.357 145.719 358.875L147.281 360.125ZM123 358C125.586 358 127.004 358.583 127.903 359.2C128.365 359.517 128.723 359.865 129.059 360.219C129.364 360.541 129.742 360.974 130.125 361.281L131.375 359.719C131.133 359.526 130.917 359.272 130.511 358.843C130.136 358.448 129.666 357.983 129.034 357.55C127.746 356.667 125.914 356 123 356V358ZM130.125 361.281C131.246 362.177 133.565 365 138.5 365V363C134.435 363 132.754 360.823 131.375 359.719L130.125 361.281ZM32 357C31.8964 357.995 31.8962 357.995 31.896 357.995C31.896 357.995 31.8958 357.995 31.8957 357.995C31.8955 357.995 31.8954 357.995 31.8954 357.995C31.8953 357.994 31.8954 357.995 31.8958 357.995C31.8965 357.995 31.8982 357.995 31.9008 357.995C31.906 357.996 31.9149 357.997 31.9273 357.998C31.9522 358.001 31.991 358.006 32.0427 358.013C32.1459 358.027 32.2998 358.049 32.4936 358.083C32.8822 358.15 33.427 358.261 34.0449 358.432C35.3009 358.781 36.7683 359.359 37.8598 360.268L39.1402 358.732C37.7317 357.558 35.9491 356.886 34.5801 356.505C33.8855 356.312 33.2741 356.188 32.8345 356.112C32.6143 356.074 32.4361 356.048 32.3109 356.031C32.2482 356.023 32.1987 356.016 32.1637 356.012C32.1463 356.01 32.1324 356.009 32.1223 356.007C32.1173 356.007 32.1132 356.006 32.1101 356.006C32.1085 356.006 32.1072 356.006 32.1061 356.006C32.1056 356.006 32.1051 356.006 32.1047 356.005C32.1045 356.005 32.1042 356.005 32.1041 356.005C32.1038 356.005 32.1036 356.005 32 357ZM37.8598 360.268C38.4624 360.77 38.9876 361.278 39.5844 361.821C40.1655 362.351 40.7897 362.89 41.5124 363.366C42.9948 364.343 44.8125 365 47.5 365V363C45.1875 363 43.7552 362.449 42.6126 361.696C42.0228 361.308 41.4908 360.853 40.9312 360.343C40.3874 359.847 39.7876 359.271 39.1402 358.732L37.8598 360.268Z" fill="#C4C4C4"/>
<path d="M1 343C0.447715 343 0 343.448 0 344C0 344.552 0.447715 345 1 345V343ZM32 345C32.5523 345 33 344.552 33 344C33 343.448 32.5523 343 32 343V345ZM1 345C3.84982 345 5.71283 346.501 7.93781 348.281C10.1202 350.027 12.6165 352 16.5 352V350C13.3835 350 11.3798 348.473 9.18719 346.719C7.03717 344.999 4.65018 343 1 343V345ZM16.5 352C20.3945 352 22.7704 350.014 24.8857 348.272C27.0204 346.514 28.8945 345 32 345V343C28.1055 343 25.7296 344.986 23.6143 346.728C21.4796 348.486 19.6055 350 16.5 350V352Z" fill="#C4C4C4"/>
<path d="M1 356C0.447715 356 0 356.448 0 357C0 357.552 0.447715 358 1 358V356ZM32 358C32.5523 358 33 357.552 33 357C33 356.448 32.5523 356 32 356V358ZM1 358C3.84982 358 5.71283 359.501 7.93781 361.281C10.1202 363.027 12.6165 365 16.5 365V363C13.3835 363 11.3798 361.473 9.18719 359.719C7.03717 357.999 4.65018 356 1 356V358ZM16.5 365C20.3945 365 22.7704 363.014 24.8857 361.272C27.0204 359.514 28.8945 358 32 358V356C28.1055 356 25.7296 357.986 23.6143 359.728C21.4796 361.486 19.6055 363 16.5 363V365Z" fill="#C4C4C4"/>
<path d="M1 369C0.447715 369 0 369.448 0 370C0 370.552 0.447715 371 1 371V369ZM32 371C32.5523 371 33 370.552 33 370C33 369.448 32.5523 369 32 369V371ZM1 371C3.84982 371 5.71283 372.501 7.93781 374.281C10.1202 376.027 12.6165 378 16.5 378V376C13.3835 376 11.3798 374.473 9.18719 372.719C7.03717 370.999 4.65018 369 1 369V371ZM16.5 378C20.3945 378 22.7704 376.014 24.8857 374.272C27.0204 372.514 28.8945 371 32 371V369C28.1055 369 25.7296 370.986 23.6143 372.728C21.4796 374.486 19.6055 376 16.5 376V378Z" fill="#C4C4C4"/>
<path d="M1 382C0.447715 382 0 382.448 0 383C0 383.552 0.447715 384 1 384V382ZM32 384C32.5523 384 33 383.552 33 383C33 382.448 32.5523 382 32 382V384ZM1 384C3.84982 384 5.71283 385.501 7.93781 387.281C10.1202 389.027 12.6165 391 16.5 391V389C13.3835 389 11.3798 387.473 9.18719 385.719C7.03717 383.999 4.65018 382 1 382V384ZM16.5 391C20.3945 391 22.7704 389.014 24.8857 387.272C27.0204 385.514 28.8945 384 32 384V382C28.1055 382 25.7296 383.986 23.6143 385.728C21.4796 387.486 19.6055 389 16.5 389V391Z" fill="#C4C4C4"/>
<path d="M1 395C0.447715 395 0 395.448 0 396C0 396.552 0.447715 397 1 397V395ZM32 397C32.5523 397 33 396.552 33 396C33 395.448 32.5523 395 32 395V397ZM1 397C3.84982 397 5.71283 398.501 7.93781 400.281C10.1202 402.027 12.6165 404 16.5 404V402C13.3835 402 11.3798 400.473 9.18719 398.719C7.03717 396.999 4.65018 395 1 395V397ZM16.5 404C20.3945 404 22.7704 402.014 24.8857 400.272C27.0204 398.514 28.8945 397 32 397V395C28.1055 395 25.7296 396.986 23.6143 398.728C21.4796 400.486 19.6055 402 16.5 402V404Z" fill="#C4C4C4"/>
<path d="M1 408C0.447715 408 0 408.448 0 409C0 409.552 0.447715 410 1 410V408ZM32 410C32.5523 410 33 409.552 33 409C33 408.448 32.5523 408 32 408V410ZM1 410C3.84982 410 5.71283 411.501 7.93781 413.281C10.1202 415.027 12.6165 417 16.5 417V415C13.3835 415 11.3798 413.473 9.18719 411.719C7.03717 409.999 4.65018 408 1 408V410ZM16.5 417C20.3945 417 22.7704 415.014 24.8857 413.272C27.0204 411.514 28.8945 410 32 410V408C28.1055 408 25.7296 409.986 23.6143 411.728C21.4796 413.486 19.6055 415 16.5 415V417Z" fill="#C4C4C4"/>
<path d="M32.1036 369.005C31.5543 368.948 31.0626 369.347 31.0054 369.896C30.9482 370.446 31.3471 370.937 31.8964 370.995L32.1036 369.005ZM153 371C153.552 371 154 370.552 154 370C154 369.448 153.552 369 153 369V371ZM47.5 378C48.9958 378 50.3013 377.473 51.4781 376.762C52.6356 376.063 53.7485 375.132 54.8122 374.281C57.0048 372.527 59.1335 371 62 371V369C58.3665 369 55.7452 370.973 53.5628 372.719C52.439 373.618 51.4582 374.437 50.4437 375.05C49.4487 375.652 48.5042 376 47.5 376V378ZM62 371C64.8498 371 66.7128 372.501 68.9378 374.281C71.1202 376.027 73.6165 378 77.5 378V376C74.3835 376 72.3798 374.473 70.1872 372.719C68.0372 370.999 65.6502 369 62 369V371ZM77.5 378C81.3945 378 83.7704 376.014 85.8857 374.272C88.0204 372.514 89.8945 371 93 371V369C89.1055 369 86.7296 370.986 84.6143 372.728C82.4796 374.486 80.6055 376 77.5 376V378ZM93 371C96.089 371 97.8381 372.5 99.7672 374.242C101.679 375.969 103.819 378 107.5 378V376C104.681 376 103.071 374.531 101.108 372.758C99.1619 371 96.911 369 93 369V371ZM107.5 378C111.119 378 113.865 376.039 116.218 374.305C118.682 372.489 120.647 371 123 371V369C119.853 369 117.318 371.011 115.032 372.695C112.635 374.461 110.381 376 107.5 376V378ZM138.5 378C140.914 378 142.62 377.458 144.002 376.513C145.338 375.599 146.308 374.341 147.281 373.125L145.719 371.875C144.692 373.159 143.912 374.151 142.873 374.862C141.88 375.542 140.586 376 138.5 376V378ZM147.281 373.125C148.066 372.143 149.417 371.584 150.722 371.288C151.354 371.144 151.932 371.072 152.352 371.035C152.561 371.017 152.728 371.008 152.841 371.004C152.898 371.002 152.94 371.001 152.967 371C152.981 371 152.99 371 152.996 371C152.999 371 153 371 153.001 371C153.001 371 153.002 371 153.001 371C153.001 371 153.001 371 153.001 371C153.001 371 153.001 371 153 371C153 371 153 371 153 370C153 369 153 369 152.999 369C152.999 369 152.999 369 152.999 369C152.998 369 152.998 369 152.997 369C152.996 369 152.994 369 152.992 369C152.989 369 152.984 369 152.978 369C152.967 369 152.951 369 152.931 369.001C152.891 369.002 152.835 369.003 152.764 369.006C152.623 369.011 152.424 369.022 152.18 369.043C151.693 369.085 151.021 369.169 150.278 369.337C148.833 369.666 146.934 370.357 145.719 371.875L147.281 373.125ZM123 371C125.586 371 127.004 371.583 127.903 372.2C128.365 372.517 128.723 372.865 129.059 373.219C129.364 373.541 129.742 373.974 130.125 374.281L131.375 372.719C131.133 372.526 130.917 372.272 130.511 371.843C130.136 371.448 129.666 370.983 129.034 370.55C127.746 369.667 125.914 369 123 369V371ZM130.125 374.281C131.246 375.177 133.565 378 138.5 378V376C134.435 376 132.754 373.823 131.375 372.719L130.125 374.281ZM32 370C31.8964 370.995 31.8962 370.995 31.896 370.995C31.896 370.995 31.8958 370.995 31.8957 370.995C31.8955 370.995 31.8954 370.995 31.8954 370.995C31.8953 370.994 31.8954 370.995 31.8958 370.995C31.8965 370.995 31.8982 370.995 31.9008 370.995C31.906 370.996 31.9149 370.997 31.9273 370.998C31.9522 371.001 31.991 371.006 32.0427 371.013C32.1459 371.027 32.2998 371.049 32.4936 371.083C32.8822 371.15 33.427 371.261 34.0449 371.432C35.3009 371.781 36.7683 372.359 37.8598 373.268L39.1402 371.732C37.7317 370.558 35.9491 369.886 34.5801 369.505C33.8855 369.312 33.2741 369.188 32.8345 369.112C32.6143 369.074 32.4361 369.048 32.3109 369.031C32.2482 369.023 32.1987 369.016 32.1637 369.012C32.1463 369.01 32.1324 369.009 32.1223 369.007C32.1173 369.007 32.1132 369.006 32.1101 369.006C32.1085 369.006 32.1072 369.006 32.1061 369.006C32.1056 369.006 32.1051 369.006 32.1047 369.005C32.1045 369.005 32.1042 369.005 32.1041 369.005C32.1038 369.005 32.1036 369.005 32 370ZM37.8598 373.268C38.4624 373.77 38.9876 374.278 39.5844 374.821C40.1655 375.351 40.7897 375.89 41.5124 376.366C42.9948 377.343 44.8125 378 47.5 378V376C45.1875 376 43.7552 375.449 42.6126 374.696C42.0228 374.308 41.4908 373.853 40.9312 373.343C40.3874 372.847 39.7876 372.271 39.1402 371.732L37.8598 373.268Z" fill="#C4C4C4"/>
<path d="M32.1036 382.005C31.5543 381.948 31.0626 382.347 31.0054 382.896C30.9482 383.446 31.3471 383.937 31.8964 383.995L32.1036 382.005ZM153 384C153.552 384 154 383.552 154 383C154 382.448 153.552 382 153 382V384ZM47.5 391C48.9958 391 50.3013 390.473 51.4781 389.762C52.6356 389.063 53.7485 388.132 54.8122 387.281C57.0048 385.527 59.1335 384 62 384V382C58.3665 382 55.7452 383.973 53.5628 385.719C52.439 386.618 51.4582 387.437 50.4437 388.05C49.4487 388.652 48.5042 389 47.5 389V391ZM62 384C64.8498 384 66.7128 385.501 68.9378 387.281C71.1202 389.027 73.6165 391 77.5 391V389C74.3835 389 72.3798 387.473 70.1872 385.719C68.0372 383.999 65.6502 382 62 382V384ZM77.5 391C81.3945 391 83.7704 389.014 85.8857 387.272C88.0204 385.514 89.8945 384 93 384V382C89.1055 382 86.7296 383.986 84.6143 385.728C82.4796 387.486 80.6055 389 77.5 389V391ZM93 384C96.089 384 97.8381 385.5 99.7672 387.242C101.679 388.969 103.819 391 107.5 391V389C104.681 389 103.071 387.531 101.108 385.758C99.1619 384 96.911 382 93 382V384ZM107.5 391C111.119 391 113.865 389.039 116.218 387.305C118.682 385.489 120.647 384 123 384V382C119.853 382 117.318 384.011 115.032 385.695C112.635 387.461 110.381 389 107.5 389V391ZM138.5 391C140.914 391 142.62 390.458 144.002 389.513C145.338 388.599 146.308 387.341 147.281 386.125L145.719 384.875C144.692 386.159 143.912 387.151 142.873 387.862C141.88 388.542 140.586 389 138.5 389V391ZM147.281 386.125C148.066 385.143 149.417 384.584 150.722 384.288C151.354 384.144 151.932 384.072 152.352 384.035C152.561 384.017 152.728 384.008 152.841 384.004C152.898 384.002 152.94 384.001 152.967 384C152.981 384 152.99 384 152.996 384C152.999 384 153 384 153.001 384C153.001 384 153.002 384 153.001 384C153.001 384 153.001 384 153.001 384C153.001 384 153.001 384 153 384C153 384 153 384 153 383C153 382 153 382 152.999 382C152.999 382 152.999 382 152.999 382C152.998 382 152.998 382 152.997 382C152.996 382 152.994 382 152.992 382C152.989 382 152.984 382 152.978 382C152.967 382 152.951 382 152.931 382.001C152.891 382.002 152.835 382.003 152.764 382.006C152.623 382.011 152.424 382.022 152.18 382.043C151.693 382.085 151.021 382.169 150.278 382.337C148.833 382.666 146.934 383.357 145.719 384.875L147.281 386.125ZM123 384C125.586 384 127.004 384.583 127.903 385.2C128.365 385.517 128.723 385.865 129.059 386.219C129.364 386.541 129.742 386.974 130.125 387.281L131.375 385.719C131.133 385.526 130.917 385.272 130.511 384.843C130.136 384.448 129.666 383.983 129.034 383.55C127.746 382.667 125.914 382 123 382V384ZM130.125 387.281C131.246 388.177 133.565 391 138.5 391V389C134.435 389 132.754 386.823 131.375 385.719L130.125 387.281ZM32 383C31.8964 383.995 31.8962 383.995 31.896 383.995C31.896 383.995 31.8958 383.995 31.8957 383.995C31.8955 383.995 31.8954 383.995 31.8954 383.995C31.8953 383.994 31.8954 383.995 31.8958 383.995C31.8965 383.995 31.8982 383.995 31.9008 383.995C31.906 383.996 31.9149 383.997 31.9273 383.998C31.9522 384.001 31.991 384.006 32.0427 384.013C32.1459 384.027 32.2998 384.049 32.4936 384.083C32.8822 384.15 33.427 384.261 34.0449 384.432C35.3009 384.781 36.7683 385.359 37.8598 386.268L39.1402 384.732C37.7317 383.558 35.9491 382.886 34.5801 382.505C33.8855 382.312 33.2741 382.188 32.8345 382.112C32.6143 382.074 32.4361 382.048 32.3109 382.031C32.2482 382.023 32.1987 382.016 32.1637 382.012C32.1463 382.01 32.1324 382.009 32.1223 382.007C32.1173 382.007 32.1132 382.006 32.1101 382.006C32.1085 382.006 32.1072 382.006 32.1061 382.006C32.1056 382.006 32.1051 382.006 32.1047 382.005C32.1045 382.005 32.1042 382.005 32.1041 382.005C32.1038 382.005 32.1036 382.005 32 383ZM37.8598 386.268C38.4624 386.77 38.9876 387.278 39.5844 387.821C40.1655 388.351 40.7897 388.89 41.5124 389.366C42.9948 390.343 44.8125 391 47.5 391V389C45.1875 389 43.7552 388.449 42.6126 387.696C42.0228 387.308 41.4908 386.853 40.9312 386.343C40.3874 385.847 39.7876 385.271 39.1402 384.732L37.8598 386.268Z" fill="#C4C4C4"/>
<path d="M32.1036 395.005C31.5543 394.948 31.0626 395.347 31.0054 395.896C30.9482 396.446 31.3471 396.937 31.8964 396.995L32.1036 395.005ZM153 397C153.552 397 154 396.552 154 396C154 395.448 153.552 395 153 395V397ZM47.5 404C48.9958 404 50.3013 403.473 51.4781 402.762C52.6356 402.063 53.7485 401.132 54.8122 400.281C57.0048 398.527 59.1335 397 62 397V395C58.3665 395 55.7452 396.973 53.5628 398.719C52.439 399.618 51.4582 400.437 50.4437 401.05C49.4487 401.652 48.5042 402 47.5 402V404ZM62 397C64.8498 397 66.7128 398.501 68.9378 400.281C71.1202 402.027 73.6165 404 77.5 404V402C74.3835 402 72.3798 400.473 70.1872 398.719C68.0372 396.999 65.6502 395 62 395V397ZM77.5 404C81.3945 404 83.7704 402.014 85.8857 400.272C88.0204 398.514 89.8945 397 93 397V395C89.1055 395 86.7296 396.986 84.6143 398.728C82.4796 400.486 80.6055 402 77.5 402V404ZM93 397C96.089 397 97.8381 398.5 99.7672 400.242C101.679 401.969 103.819 404 107.5 404V402C104.681 402 103.071 400.531 101.108 398.758C99.1619 397 96.911 395 93 395V397ZM107.5 404C111.119 404 113.865 402.039 116.218 400.305C118.682 398.489 120.647 397 123 397V395C119.853 395 117.318 397.011 115.032 398.695C112.635 400.461 110.381 402 107.5 402V404ZM138.5 404C140.914 404 142.62 403.458 144.002 402.513C145.338 401.599 146.308 400.341 147.281 399.125L145.719 397.875C144.692 399.159 143.912 400.151 142.873 400.862C141.88 401.542 140.586 402 138.5 402V404ZM147.281 399.125C148.066 398.143 149.417 397.584 150.722 397.288C151.354 397.144 151.932 397.072 152.352 397.035C152.561 397.017 152.728 397.008 152.841 397.004C152.898 397.002 152.94 397.001 152.967 397C152.981 397 152.99 397 152.996 397C152.999 397 153 397 153.001 397C153.001 397 153.002 397 153.001 397C153.001 397 153.001 397 153.001 397C153.001 397 153.001 397 153 397C153 397 153 397 153 396C153 395 153 395 152.999 395C152.999 395 152.999 395 152.999 395C152.998 395 152.998 395 152.997 395C152.996 395 152.994 395 152.992 395C152.989 395 152.984 395 152.978 395C152.967 395 152.951 395 152.931 395.001C152.891 395.002 152.835 395.003 152.764 395.006C152.623 395.011 152.424 395.022 152.18 395.043C151.693 395.085 151.021 395.169 150.278 395.337C148.833 395.666 146.934 396.357 145.719 397.875L147.281 399.125ZM123 397C125.586 397 127.004 397.583 127.903 398.2C128.365 398.517 128.723 398.865 129.059 399.219C129.364 399.541 129.742 399.974 130.125 400.281L131.375 398.719C131.133 398.526 130.917 398.272 130.511 397.843C130.136 397.448 129.666 396.983 129.034 396.55C127.746 395.667 125.914 395 123 395V397ZM130.125 400.281C131.246 401.177 133.565 404 138.5 404V402C134.435 402 132.754 399.823 131.375 398.719L130.125 400.281ZM32 396C31.8964 396.995 31.8962 396.995 31.896 396.995C31.896 396.995 31.8958 396.995 31.8957 396.995C31.8955 396.995 31.8954 396.995 31.8954 396.995C31.8953 396.994 31.8954 396.995 31.8958 396.995C31.8965 396.995 31.8982 396.995 31.9008 396.995C31.906 396.996 31.9149 396.997 31.9273 396.998C31.9522 397.001 31.991 397.006 32.0427 397.013C32.1459 397.027 32.2998 397.049 32.4936 397.083C32.8822 397.15 33.427 397.261 34.0449 397.432C35.3009 397.781 36.7683 398.359 37.8598 399.268L39.1402 397.732C37.7317 396.558 35.9491 395.886 34.5801 395.505C33.8855 395.312 33.2741 395.188 32.8345 395.112C32.6143 395.074 32.4361 395.048 32.3109 395.031C32.2482 395.023 32.1987 395.016 32.1637 395.012C32.1463 395.01 32.1324 395.009 32.1223 395.007C32.1173 395.007 32.1132 395.006 32.1101 395.006C32.1085 395.006 32.1072 395.006 32.1061 395.006C32.1056 395.006 32.1051 395.006 32.1047 395.005C32.1045 395.005 32.1042 395.005 32.1041 395.005C32.1038 395.005 32.1036 395.005 32 396ZM37.8598 399.268C38.4624 399.77 38.9876 400.278 39.5844 400.821C40.1655 401.351 40.7897 401.89 41.5124 402.366C42.9948 403.343 44.8125 404 47.5 404V402C45.1875 402 43.7552 401.449 42.6126 400.696C42.0228 400.308 41.4908 399.853 40.9312 399.343C40.3874 398.847 39.7876 398.271 39.1402 397.732L37.8598 399.268Z" fill="#C4C4C4"/>
<path d="M32.1036 408.005C31.5543 407.948 31.0626 408.347 31.0054 408.896C30.9482 409.446 31.3471 409.937 31.8964 409.995L32.1036 408.005ZM153 410C153.552 410 154 409.552 154 409C154 408.448 153.552 408 153 408V410ZM47.5 417C48.9958 417 50.3013 416.473 51.4781 415.762C52.6356 415.063 53.7485 414.132 54.8122 413.281C57.0048 411.527 59.1335 410 62 410V408C58.3665 408 55.7452 409.973 53.5628 411.719C52.439 412.618 51.4582 413.437 50.4437 414.05C49.4487 414.652 48.5042 415 47.5 415V417ZM62 410C64.8498 410 66.7128 411.501 68.9378 413.281C71.1202 415.027 73.6165 417 77.5 417V415C74.3835 415 72.3798 413.473 70.1872 411.719C68.0372 409.999 65.6502 408 62 408V410ZM77.5 417C81.3945 417 83.7704 415.014 85.8857 413.272C88.0204 411.514 89.8945 410 93 410V408C89.1055 408 86.7296 409.986 84.6143 411.728C82.4796 413.486 80.6055 415 77.5 415V417ZM93 410C96.089 410 97.8381 411.5 99.7672 413.242C101.679 414.969 103.819 417 107.5 417V415C104.681 415 103.071 413.531 101.108 411.758C99.1619 410 96.911 408 93 408V410ZM107.5 417C111.119 417 113.865 415.039 116.218 413.305C118.682 411.489 120.647 410 123 410V408C119.853 408 117.318 410.011 115.032 411.695C112.635 413.461 110.381 415 107.5 415V417ZM138.5 417C140.914 417 142.62 416.458 144.002 415.513C145.338 414.599 146.308 413.341 147.281 412.125L145.719 410.875C144.692 412.159 143.912 413.151 142.873 413.862C141.88 414.542 140.586 415 138.5 415V417ZM147.281 412.125C148.066 411.143 149.417 410.584 150.722 410.288C151.354 410.144 151.932 410.072 152.352 410.035C152.561 410.017 152.728 410.008 152.841 410.004C152.898 410.002 152.94 410.001 152.967 410C152.981 410 152.99 410 152.996 410C152.999 410 153 410 153.001 410C153.001 410 153.002 410 153.001 410C153.001 410 153.001 410 153.001 410C153.001 410 153.001 410 153 410C153 410 153 410 153 409C153 408 153 408 152.999 408C152.999 408 152.999 408 152.999 408C152.998 408 152.998 408 152.997 408C152.996 408 152.994 408 152.992 408C152.989 408 152.984 408 152.978 408C152.967 408 152.951 408 152.931 408.001C152.891 408.002 152.835 408.003 152.764 408.006C152.623 408.011 152.424 408.022 152.18 408.043C151.693 408.085 151.021 408.169 150.278 408.337C148.833 408.666 146.934 409.357 145.719 410.875L147.281 412.125ZM123 410C125.586 410 127.004 410.583 127.903 411.2C128.365 411.517 128.723 411.865 129.059 412.219C129.364 412.541 129.742 412.974 130.125 413.281L131.375 411.719C131.133 411.526 130.917 411.272 130.511 410.843C130.136 410.448 129.666 409.983 129.034 409.55C127.746 408.667 125.914 408 123 408V410ZM130.125 413.281C131.246 414.177 133.565 417 138.5 417V415C134.435 415 132.754 412.823 131.375 411.719L130.125 413.281ZM32 409C31.8964 409.995 31.8962 409.995 31.896 409.995C31.896 409.995 31.8958 409.995 31.8957 409.995C31.8955 409.995 31.8954 409.995 31.8954 409.995C31.8953 409.994 31.8954 409.995 31.8958 409.995C31.8965 409.995 31.8982 409.995 31.9008 409.995C31.906 409.996 31.9149 409.997 31.9273 409.998C31.9522 410.001 31.991 410.006 32.0427 410.013C32.1459 410.027 32.2998 410.049 32.4936 410.083C32.8822 410.15 33.427 410.261 34.0449 410.432C35.3009 410.781 36.7683 411.359 37.8598 412.268L39.1402 410.732C37.7317 409.558 35.9491 408.886 34.5801 408.505C33.8855 408.312 33.2741 408.188 32.8345 408.112C32.6143 408.074 32.4361 408.048 32.3109 408.031C32.2482 408.023 32.1987 408.016 32.1637 408.012C32.1463 408.01 32.1324 408.009 32.1223 408.007C32.1173 408.007 32.1132 408.006 32.1101 408.006C32.1085 408.006 32.1072 408.006 32.1061 408.006C32.1056 408.006 32.1051 408.006 32.1047 408.005C32.1045 408.005 32.1042 408.005 32.1041 408.005C32.1038 408.005 32.1036 408.005 32 409ZM37.8598 412.268C38.4624 412.77 38.9876 413.278 39.5844 413.821C40.1655 414.351 40.7897 414.89 41.5124 415.366C42.9948 416.343 44.8125 417 47.5 417V415C45.1875 415 43.7552 414.449 42.6126 413.696C42.0228 413.308 41.4908 412.853 40.9312 412.343C40.3874 411.847 39.7876 411.271 39.1402 410.732L37.8598 412.268Z" fill="#C4C4C4"/>
<defs>
<clipPath id="clip0">
<rect width="33.9512" height="33.9512" fill="white" transform="translate(21 210.45) rotate(-25.19)"/>
</clipPath>
</defs>
</svg>
