<svg width="31" height="31" viewBox="0 0 31 31" fill="none" xmlns="http://www.w3.org/2000/svg">
<path d="M15.4785 0C9.21377 0 4.11719 5.09658 4.11719 11.3613C4.11719 14.2392 5.93052 18.3053 9.50704 23.4468C12.1212 27.2052 14.6923 30.1136 14.8006 30.2356L15.4785 31L16.1566 30.2356C16.2646 30.1136 18.8358 27.2052 21.4501 23.4468C25.0264 18.3053 26.84 14.2392 26.84 11.3613C26.84 5.09658 21.7432 0 15.4785 0V0ZM15.4785 17.6099C11.7811 17.6099 8.77315 14.6017 8.77315 10.9044C8.77315 7.20697 11.7811 4.19902 15.4785 4.19902C19.1761 4.19902 22.184 7.20697 22.184 10.9044C22.184 14.6017 19.1761 17.6099 15.4785 17.6099V17.6099Z" fill="#FF901D"/>
</svg>
